<svg width="200" height="35" viewBox="0 0 200 35" fill="none" xmlns="http://www.w3.org/2000/svg">
<g clip-path="url(#clip0_1680_4215)">
<path d="M0 6.80556C0 3.04695 3.07255 0 6.86275 0H193.612C197.402 0 200.475 3.04695 200.475 6.80556V28.1944C200.475 31.9531 197.402 35 193.612 35H6.86275C3.07255 35 0 31.9531 0 28.1944V6.80556Z" fill="#F3F0FF"/>
<path d="M5.48218 17.3327C5.48218 16.1952 5.68737 15.084 6.09786 13.999C6.52541 12.8965 7.1411 11.899 7.94492 11.0065C8.74865 10.114 9.72345 9.40526 10.8693 8.88026C12.0323 8.33776 13.3406 8.06651 14.7942 8.06651C16.5386 8.06651 18.0608 8.44276 19.3605 9.19526C20.6603 9.93024 21.6266 10.9102 22.2593 12.1352L18.4371 14.9177C18.2147 14.3052 17.8897 13.8327 17.4622 13.5002C17.0518 13.1677 16.5985 12.9402 16.1026 12.8177C15.6237 12.6777 15.1535 12.6077 14.6917 12.6077C13.9734 12.6077 13.3491 12.7565 12.8189 13.054C12.3059 13.334 11.8784 13.7102 11.5363 14.1827C11.2114 14.6552 10.9635 15.1802 10.7924 15.7577C10.6385 16.3352 10.5615 16.9127 10.5615 17.4902C10.5615 18.1377 10.6556 18.759 10.8436 19.354C11.0318 19.949 11.3054 20.4827 11.6646 20.9552C12.0237 21.4102 12.4598 21.769 12.9729 22.0315C13.5031 22.294 14.0931 22.4252 14.743 22.4252C15.2047 22.4252 15.675 22.3552 16.1539 22.2152C16.6328 22.0577 17.0688 21.8127 17.4622 21.4802C17.8555 21.1477 18.1548 20.7015 18.3601 20.1415L22.4389 22.6352C22.0798 23.5452 21.4812 24.324 20.6432 24.9715C19.8052 25.619 18.856 26.1177 17.7957 26.4677C16.7354 26.8002 15.6836 26.9665 14.6403 26.9665C13.2893 26.9665 12.0494 26.6952 10.9206 26.1527C9.80904 25.5927 8.84277 24.8577 8.02188 23.9477C7.21806 23.0202 6.59384 21.9877 6.14914 20.8502C5.70453 19.6952 5.48218 18.5227 5.48218 17.3327Z" fill="#7950F2"/>
<path d="M32.1529 26.9665C30.7676 26.9665 29.5106 26.704 28.3819 26.179C27.2531 25.6365 26.2783 24.919 25.4574 24.0265C24.6536 23.1165 24.0293 22.1015 23.5847 20.9815C23.1572 19.844 22.9434 18.6715 22.9434 17.464C22.9434 16.2215 23.1742 15.0402 23.636 13.9202C24.0978 12.8002 24.7391 11.8027 25.56 10.9277C26.398 10.0352 27.3814 9.33526 28.5101 8.82776C29.656 8.32026 30.9044 8.06651 32.2555 8.06651C33.6407 8.06651 34.8978 8.33776 36.0265 8.88026C37.1552 9.40526 38.1215 10.1227 38.9253 11.0327C39.7291 11.9427 40.3448 12.9665 40.7724 14.104C41.217 15.224 41.4393 16.379 41.4393 17.569C41.4393 18.794 41.2085 19.9665 40.7467 21.0865C40.302 22.2065 39.6607 23.2127 38.8227 24.1052C38.0018 24.9802 37.027 25.6802 35.8983 26.2052C34.7695 26.7127 33.521 26.9665 32.1529 26.9665ZM28.0227 17.5165C28.0227 18.1465 28.1083 18.759 28.2792 19.354C28.4502 19.9315 28.7068 20.4565 29.0489 20.929C29.3909 21.384 29.8185 21.7515 30.3315 22.0315C30.8617 22.294 31.4859 22.4252 32.2041 22.4252C32.9225 22.4252 33.5467 22.2852 34.0769 22.0052C34.607 21.7252 35.0345 21.349 35.3595 20.8765C35.7016 20.3865 35.9495 19.8527 36.1035 19.2752C36.2744 18.6802 36.36 18.0765 36.36 17.464C36.36 16.834 36.2744 16.2302 36.1035 15.6527C35.9325 15.0752 35.6759 14.559 35.3338 14.104C34.9918 13.6315 34.5557 13.264 34.0255 13.0015C33.4954 12.739 32.8797 12.6077 32.1786 12.6077C31.4602 12.6077 30.836 12.7477 30.3058 13.0277C29.7928 13.3077 29.3652 13.684 29.0232 14.1565C28.6811 14.6115 28.4246 15.1365 28.2536 15.7315C28.0996 16.309 28.0227 16.904 28.0227 17.5165Z" fill="#7950F2"/>
<path d="M51.435 26.9403C50.255 26.9403 49.1263 26.7303 48.0488 26.3103C46.9884 25.8728 46.0479 25.2428 45.227 24.4203C44.4061 23.5803 43.7562 22.574 43.2774 21.4015C42.8156 20.2115 42.5847 18.8553 42.5847 17.3328C42.5847 16.0203 42.8241 14.804 43.3029 13.684C43.7819 12.564 44.4403 11.584 45.2782 10.744C46.1333 9.88653 47.1253 9.22154 48.254 8.74904C49.3828 8.27654 50.6056 8.04029 51.9225 8.04029C53.5642 8.04029 55.0522 8.4078 56.3861 9.1428C57.7201 9.86028 58.712 10.849 59.3619 12.109L55.6422 15.0228C55.283 14.2878 54.7443 13.7015 54.026 13.264C53.3078 12.809 52.5467 12.5815 51.7429 12.5815C51.1443 12.5815 50.5971 12.704 50.1011 12.949C49.6051 13.194 49.169 13.5353 48.7928 13.9728C48.4336 14.4103 48.1514 14.9353 47.9462 15.5478C47.758 16.1428 47.664 16.799 47.664 17.5165C47.664 18.2515 47.7666 18.9165 47.9719 19.5115C48.1771 20.1065 48.4592 20.6228 48.8184 21.0603C49.1946 21.4803 49.6393 21.8128 50.1524 22.0578C50.6654 22.2853 51.2383 22.399 51.8711 22.399C52.6749 22.399 53.4445 22.1978 54.1799 21.7953C54.9153 21.3753 55.5823 20.789 56.1809 20.0365V25.024C54.8127 26.3015 53.2308 26.9403 51.435 26.9403ZM55.9243 20.5615H52.5637V16.8865H60.0549V26.809H55.9243V20.5615Z" fill="#7950F2"/>
<path d="M67.5264 17.6478V26.809H62.5234V8.17154H66.4234L73.7342 17.6478V8.17154H78.7362V26.809H74.7607L67.5264 17.6478Z" fill="#7950F2"/>
<path d="M81.8638 26.809V8.17154H86.8667V26.809H81.8638Z" fill="#7950F2"/>
<path d="M104.192 12.634H98.9588V26.809H93.9559V12.634H88.697V8.17154H104.192V12.634Z" fill="#7950F2"/>
<path d="M106.014 26.809V8.17154H111.017V26.809H106.014Z" fill="#7950F2"/>
<path d="M117.671 8.17154L121.236 20.9028L124.751 8.17154H130.01L123.724 26.809H118.748L112.385 8.17154H117.671Z" fill="#7950F2"/>
<path d="M144.372 22.3465V26.809H131.391V8.17154H144.141V12.634H136.394V15.259H143.013V19.4065H136.394V22.3465H144.372Z" fill="#7950F2"/>
<path d="M148.666 26.809V8.17154H150.975V24.709H161.133V26.809H148.666Z" fill="#7950F2"/>
<path d="M169.188 8.17154H171.137L178.578 26.809H176.115L173.96 21.349H166.315L164.185 26.809H161.723L169.188 8.17154ZM173.446 19.5115L170.163 10.9015L166.777 19.5115H173.446Z" fill="#7950F2"/>
<path d="M194.989 22.0053C194.989 22.9678 194.749 23.8078 194.271 24.5253C193.792 25.2428 193.142 25.8028 192.321 26.2053C191.518 26.6078 190.627 26.809 189.653 26.809H181.008V8.17154H190.064C190.919 8.17154 191.654 8.40779 192.27 8.88029C192.902 9.33529 193.381 9.93027 193.706 10.6653C194.048 11.3828 194.22 12.1353 194.22 12.9228C194.22 13.8328 193.988 14.6903 193.526 15.4953C193.082 16.2828 192.441 16.869 191.603 17.254C192.646 17.569 193.467 18.1553 194.066 19.0128C194.681 19.8528 194.989 20.8503 194.989 22.0053ZM192.655 21.5853C192.655 21.0078 192.526 20.474 192.27 19.984C192.03 19.494 191.697 19.1003 191.27 18.8028C190.859 18.5053 190.379 18.3565 189.832 18.3565H183.317V24.7615H189.653C190.218 24.7615 190.722 24.6128 191.167 24.3153C191.628 24.0178 191.987 23.6328 192.244 23.1603C192.518 22.6703 192.655 22.1453 192.655 21.5853ZM183.317 10.219V16.4403H189.115C189.662 16.4403 190.14 16.3003 190.551 16.0203C190.978 15.7403 191.312 15.364 191.551 14.8915C191.808 14.419 191.936 13.9028 191.936 13.3428C191.936 12.7478 191.817 12.2228 191.577 11.7678C191.355 11.2953 191.038 10.919 190.627 10.639C190.234 10.359 189.781 10.219 189.269 10.219H183.317Z" fill="#7950F2"/>
</g>
<defs>
<clipPath id="clip0_1680_4215">
<rect width="200" height="35" fill="white"/>
</clipPath>
</defs>
</svg>
